<?xml version="1.0" encoding="UTF-8"?>
<!DOCTYPE svg PUBLIC "-//W3C//DTD SVG 1.1//EN" "http://www.w3.org/Graphics/SVG/1.1/DTD/svg11.dtd">
<svg xmlns="http://www.w3.org/2000/svg" version="1.1" width="690px" height="630px" style="shape-rendering:geometricPrecision; text-rendering:geometricPrecision; image-rendering:optimizeQuality; fill-rule:evenodd; clip-rule:evenodd" xmlns:xlink="http://www.w3.org/1999/xlink">
<g><path style="opacity:0.989" fill="#fefffe" d="M 700.5,236.5 C 700.5,237.167 700.5,237.833 700.5,238.5C 673.637,238.065 648.971,245.231 626.5,260C 614.597,267.9 603.264,276.567 592.5,286C 576.271,301.56 560.771,317.727 546,334.5C 547.472,436.731 506.306,516.565 422.5,574C 349.931,618.139 272.931,627.805 191.5,603C 94.8361,567.669 35.0027,499.835 12,399.5C -4.98508,294.769 26.1816,207.602 105.5,138C 173.998,84.6286 250.998,66.6286 336.5,84C 431.201,108.368 496.034,166.202 531,257.5C 533.671,266.178 536.337,274.844 539,283.5C 563.64,262.923 591.14,247.09 621.5,236C 639.814,230.235 658.481,228.568 677.5,231C 685.257,232.532 692.923,234.365 700.5,236.5 Z M 99.5,308.5 C 108.096,299.071 117.763,290.905 128.5,284C 146.908,271.966 166.575,269.299 187.5,276C 208.111,287.431 216.278,304.931 212,328.5C 206.444,352.501 199.277,376.001 190.5,399C 192.009,406.764 196.676,409.43 204.5,407C 232.027,373.441 259.194,339.607 286,305.5C 303.319,284.176 323.153,265.676 345.5,250C 360.696,240.797 376.696,238.797 393.5,244C 407.452,251.048 416.285,262.214 420,277.5C 423.208,292.478 423.208,307.478 420,322.5C 415.137,343.618 409.804,364.618 404,385.5C 402.962,390.967 402.129,396.467 401.5,402C 401.625,413.163 406.625,416.496 416.5,412C 433.703,393.799 450.536,375.299 467,356.5C 497.508,322.309 531.341,292.143 568.5,266C 592.196,249.822 618.196,239.155 646.5,234C 657.877,233.144 669.21,233.478 680.5,235C 649.645,241.761 622.312,255.427 598.5,276C 574.288,297.878 551.788,321.378 531,346.5C 509,373.833 487,401.167 465,428.5C 451.349,444.823 435.849,458.99 418.5,471C 405.681,479.388 391.681,483.054 376.5,482C 361.667,477.833 352.167,468.333 348,453.5C 346.698,437.943 348.032,422.61 352,407.5C 359.336,380.821 366.669,354.154 374,327.5C 374.759,306.921 365.592,300.421 346.5,308C 311.85,343.976 278.683,381.142 247,419.5C 235.868,432.3 224.368,444.8 212.5,457C 203.165,465.996 192.499,472.996 180.5,478C 167.051,482.379 154.384,480.712 142.5,473C 134.559,466.032 130.559,457.198 130.5,446.5C 131.753,433.488 134.586,420.821 139,408.5C 149.61,383.614 159.943,358.614 170,333.5C 174.397,321.041 171.897,310.208 162.5,301C 159.618,299.392 156.618,298.059 153.5,297C 140.388,295.289 127.721,296.956 115.5,302C 110.183,304.271 104.85,306.437 99.5,308.5 Z"/></g>
</svg>
